<svg width="590" height="526" xmlns="http://www.w3.org/2000/svg" fill="none">

 <g>
  <title>Layer 1</title>
  <path id="svg_1" fill="#b3b7bc" d="m485.42,225.308l-162.44,-55.29l20.7,-83.615l174.6,6.345l-32.86,132.56z"/>
  <path id="svg_2" fill="#e5e8ed" d="m396.565,349.71l-180.198,-125.537l106.614,-54.27l162.44,55.404l-88.855,124.403l-0.001,0z"/>
  <g id="svg_3" fill="#1e212c">
   <path id="svg_4" d="m395.268,303.82l-132.63,-85.145l1.527,-0.567l131.783,84.58l-0.68,1.133l0,-0.001zm18.666,-24.642l-131.5,-72.002l1.3,-0.793l131.218,71.605l-1.018,1.2l0,-0.01zm18.166,-22.038l-129.012,-60.276l1.244,-0.85l128.503,60.048l-0.735,1.077l0,0.001zm18.483,-22.77l-129.633,-49.626l1.358,-0.85l129.292,49.23l-1.018,1.247l0.001,-0.001z"/>
   <path id="svg_5" d="m268.8,236.918l-1.47,-0.793l79.353,-45.887l1.64,0.567l-79.522,46.113l-0.001,0zm33.997,22.66l-1.414,-0.736l71.547,-59.822l1.47,0.453l-71.604,60.105l0.001,0zm35.23,23.795l-1.245,-0.793l67.25,-72.342l1.414,0.34l-67.418,72.795l-0.001,0zm36.146,23.904l-0.96,-0.793l67.362,-82.086l1.244,0.454l-67.645,82.425l-0.001,0z"/>
  </g>
  <path id="svg_6" fill="#fff" d="m526.538,88.325c-0.17,-0.113 -0.396,-0.17 -0.622,-0.17l-162.212,-5.155l-20.022,3.4l5.6,0.227l14.48,-2.323l160.232,5.1l-5.656,3.342l-0.396,1.7l7.4,-4.532l-36.312,147.856l-3.506,-12.633l-159.667,-54.27l-1.64,0.85l160.403,54.723l3.676,13.993l-92.758,130.567l2.036,-22.773l-1.018,1.473l-2.093,22.943l-176.07,-131.2l-0.678,-16.315l-1.358,-0.963l0.792,17.958l177.313,132.4l95.2,-133.807l37.16,-151.595c0.057,-0.283 -0.057,-0.567 -0.283,-0.793l-0.001,-0.003z"/>
  <text transform="rotate(10.4043, 390.64, 140.496) matrix(2.22065, 0, 0, 1.46709, -439.448, -39.9431)" font-style="normal" font-weight="normal" xml:space="preserve" text-anchor="start" font-family="'Anton'" font-size="14" stroke-width="0" id="svg_7" y="132.98078" x="353.60402" fill="#ffffff"> Soll.im</text>
 </g>
</svg>